<svg xmlns="http://www.w3.org/2000/svg" width="2400" height="1500" viewBox="0 0 2400 1500">
<defs>

<marker id="arrow-blue" markerWidth="14" markerHeight="14" refX="10" refY="5" orient="auto" markerUnits="strokeWidth">
  <path d="M 0 0 L 10 5 L 0 10 z" fill="#2563eb"/>
</marker>

<marker id="arrow-green" markerWidth="14" markerHeight="14" refX="10" refY="5" orient="auto" markerUnits="strokeWidth">
  <path d="M 0 0 L 10 5 L 0 10 z" fill="#059669"/>
</marker>

<marker id="arrow-amber" markerWidth="14" markerHeight="14" refX="10" refY="5" orient="auto" markerUnits="strokeWidth">
  <path d="M 0 0 L 10 5 L 0 10 z" fill="#d97706"/>
</marker>

<marker id="arrow-red" markerWidth="14" markerHeight="14" refX="10" refY="5" orient="auto" markerUnits="strokeWidth">
  <path d="M 0 0 L 10 5 L 0 10 z" fill="#dc2626"/>
</marker>

<marker id="arrow-purple" markerWidth="14" markerHeight="14" refX="10" refY="5" orient="auto" markerUnits="strokeWidth">
  <path d="M 0 0 L 10 5 L 0 10 z" fill="#7c3aed"/>
</marker>

<marker id="arrow-slate" markerWidth="14" markerHeight="14" refX="10" refY="5" orient="auto" markerUnits="strokeWidth">
  <path d="M 0 0 L 10 5 L 0 10 z" fill="#64748b"/>
</marker>
  <linearGradient id="bg" x1="0" y1="0" x2="1" y2="1">
    <stop offset="0%" stop-color="#f8fafc"/>
    <stop offset="58%" stop-color="#f3f7fb"/>
    <stop offset="100%" stop-color="#eef6f2"/>
  </linearGradient>
  <filter id="softShadow" x="-20%" y="-20%" width="140%" height="140%">
    <feDropShadow dx="0" dy="12" stdDeviation="12" flood-color="#1f2937" flood-opacity="0.10"/>
  </filter>
</defs>
<rect width="2400" height="1500" fill="url(#bg)"/>
<g opacity="0.55">
  <path d="M0 190 H2400" stroke="#e2e8f0" stroke-width="2"/>
  <path d="M0 1010 H2400" stroke="#e2e8f0" stroke-width="2"/>
</g>

<text x="80" y="88" font-size="62" font-weight="820" fill="#0f172a">AutoOnCall 诊断闭环流程图</text>
<text x="82" y="140" font-size="30" font-weight="500" fill="#64748b">从告警到诊断报告：LLM 只负责计划与表达，后端用工具契约、证据链、审批和评测约束行为</text>
<rect x="1810" y="58" width="510" height="70" rx="35" fill="#ffffff" stroke="#d6dee8" stroke-width="2"/>
<text x="1844" y="103" font-size="26" font-weight="760" fill="#334155">核心主线：AIOps Agent + RAG Evidence</text>

<g filter="url(#softShadow)">

<g>
  <rect x="80" y="250" width="310" height="190" rx="26" fill="#ffffff" stroke="#d6dee8" stroke-width="2"/>
  <rect x="80" y="250" width="10" height="190" rx="5" fill="#2563eb"/>
  <circle cx="120" cy="296" r="14" fill="#2563eb" opacity="0.16"/>
  <text x="146" y="308" font-size="34" font-weight="750" fill="#2563eb">告警接入</text>
  <text x="116" y="346" font-size="27" font-weight="500" fill="#263244">Alertmanager</text>
<text x="116" y="384" font-size="27" font-weight="500" fill="#263244">Webhook 输入</text>
<text x="116" y="422" font-size="27" font-weight="500" fill="#263244">fingerprint 去重</text>
</g>

<g>
  <rect x="450" y="250" width="310" height="190" rx="26" fill="#ffffff" stroke="#d6dee8" stroke-width="2"/>
  <rect x="450" y="250" width="10" height="190" rx="5" fill="#7c3aed"/>
  <circle cx="490" cy="296" r="14" fill="#7c3aed" opacity="0.16"/>
  <text x="516" y="308" font-size="34" font-weight="750" fill="#7c3aed">API / SSE</text>
  <text x="486" y="346" font-size="27" font-weight="500" fill="#263244">FastAPI 路由</text>
<text x="486" y="384" font-size="27" font-weight="500" fill="#263244">/api/alerts / aiops</text>
<text x="486" y="422" font-size="27" font-weight="500" fill="#263244">流式诊断事件</text>
</g>

<g>
  <rect x="820" y="250" width="310" height="190" rx="26" fill="#ffffff" stroke="#d6dee8" stroke-width="2"/>
  <rect x="820" y="250" width="10" height="190" rx="5" fill="#059669"/>
  <circle cx="860" cy="296" r="14" fill="#059669" opacity="0.16"/>
  <text x="886" y="308" font-size="34" font-weight="750" fill="#059669">Planner</text>
  <text x="856" y="346" font-size="27" font-weight="500" fill="#263244">Runbook 检索</text>
<text x="856" y="384" font-size="27" font-weight="500" fill="#263244">LLM 结构化计划</text>
<text x="856" y="422" font-size="27" font-weight="500" fill="#263244">PlanStep 队列</text>
</g>

<g>
  <rect x="1190" y="250" width="310" height="190" rx="26" fill="#ffffff" stroke="#d6dee8" stroke-width="2"/>
  <rect x="1190" y="250" width="10" height="190" rx="5" fill="#d97706"/>
  <circle cx="1230" cy="296" r="14" fill="#d97706" opacity="0.16"/>
  <text x="1256" y="308" font-size="34" font-weight="750" fill="#d97706">Executor</text>
  <text x="1226" y="346" font-size="27" font-weight="500" fill="#263244">Tool Registry</text>
<text x="1226" y="384" font-size="27" font-weight="500" fill="#263244">风险门禁</text>
<text x="1226" y="422" font-size="27" font-weight="500" fill="#263244">只读工具取证</text>
</g>

<g>
  <rect x="1560" y="250" width="310" height="190" rx="26" fill="#ffffff" stroke="#d6dee8" stroke-width="2"/>
  <rect x="1560" y="250" width="10" height="190" rx="5" fill="#2563eb"/>
  <circle cx="1600" cy="296" r="14" fill="#2563eb" opacity="0.16"/>
  <text x="1626" y="308" font-size="34" font-weight="750" fill="#2563eb">Evidence</text>
  <text x="1596" y="346" font-size="27" font-weight="500" fill="#263244">ToolCallRecord</text>
<text x="1596" y="384" font-size="27" font-weight="500" fill="#263244">Evidence Matrix</text>
<text x="1596" y="422" font-size="27" font-weight="500" fill="#263244">Trace 可回放</text>
</g>

<g>
  <rect x="1930" y="250" width="390" height="190" rx="26" fill="#ffffff" stroke="#d6dee8" stroke-width="2"/>
  <rect x="1930" y="250" width="10" height="190" rx="5" fill="#dc2626"/>
  <circle cx="1970" cy="296" r="14" fill="#dc2626" opacity="0.16"/>
  <text x="1996" y="308" font-size="34" font-weight="750" fill="#dc2626">Replanner</text>
  <text x="1966" y="346" font-size="27" font-weight="500" fill="#263244">Evidence Analyzer</text>
<text x="1966" y="384" font-size="27" font-weight="500" fill="#263244">补查 / 审批 / 报告</text>
<text x="1966" y="422" font-size="27" font-weight="500" fill="#263244">证据不足则降级</text>
</g>
</g>

<g>
  <path d="M 390 345 L 450 345" fill="none" stroke="#64748b" stroke-width="4" stroke-linecap="round" marker-end="url(#arrow-slate)"/>

</g>

<g>
  <path d="M 760 345 L 820 345" fill="none" stroke="#64748b" stroke-width="4" stroke-linecap="round" marker-end="url(#arrow-slate)"/>

</g>

<g>
  <path d="M 1130 345 L 1190 345" fill="none" stroke="#64748b" stroke-width="4" stroke-linecap="round" marker-end="url(#arrow-slate)"/>

</g>

<g>
  <path d="M 1500 345 L 1560 345" fill="none" stroke="#64748b" stroke-width="4" stroke-linecap="round" marker-end="url(#arrow-slate)"/>

</g>

<g>
  <path d="M 1870 345 L 1930 345" fill="none" stroke="#64748b" stroke-width="4" stroke-linecap="round" marker-end="url(#arrow-slate)"/>

</g>

<g filter="url(#softShadow)">

<g>
  <rect x="120" y="560" width="980" height="270" rx="28" fill="#f7fffb" stroke="#d6dee8" stroke-width="2"/>
  <text x="154" y="618" font-size="34" font-weight="760" fill="#059669">RAG / Runbook 知识链路</text>
  <text x="154" y="672" font-size="27" font-weight="500" fill="#334155">文档上传：Markdown / PDF / HTML / CSV / XLSX</text>
<text x="154" y="711" font-size="27" font-weight="500" fill="#334155">结构化切分 -&gt; Embedding -&gt; Milvus + 词法检索</text>
<text x="154" y="750" font-size="27" font-weight="500" fill="#334155">rerank + trust gate + citation guard</text>
<text x="154" y="789" font-size="27" font-weight="500" fill="#334155">无可信来源时拒答</text>
  <rect x="154" y="772" width="824" height="38" rx="19" fill="#ffffff" stroke="#059669" stroke-width="2" opacity="0.96"/>
  <text x="176" y="799" font-size="22" font-weight="700" fill="#059669">给 Planner / Executor 提供可引用知识依据</text>
</g>

<g>
  <rect x="1300" y="560" width="980" height="250" rx="28" fill="#fffdf5" stroke="#d6dee8" stroke-width="2"/>
  <text x="1334" y="618" font-size="34" font-weight="760" fill="#d97706">外部系统适配器 / 工具层</text>
  <text x="1334" y="672" font-size="27" font-weight="500" fill="#334155">Prometheus 指标、Loki / 日志网关、Trace、Kubernetes</text>
<text x="1334" y="711" font-size="27" font-weight="500" fill="#334155">Redis、MySQL、CMDB、发布历史、历史工单</text>
<text x="1334" y="750" font-size="27" font-weight="500" fill="#334155">工具输出统一归一化为 Evidence，失败也写入报告</text>
  <rect x="1334" y="752" width="304" height="38" rx="19" fill="#ffffff" stroke="#d97706" stroke-width="2" opacity="0.96"/>
  <text x="1356" y="779" font-size="22" font-weight="700" fill="#d97706">不是模型自由操作生产</text>
</g>
</g>


<g>
  <path d="M 970 560 L 970 500 L 1345 500 L 1345 442" fill="none" stroke="#059669" stroke-width="5" stroke-linecap="round" stroke-linejoin="round" marker-end="url(#arrow-green)"/>
  <rect x="1004" y="459" width="274" height="42" rx="21" fill="#ffffff" stroke="#059669" stroke-width="1.5"/><text x="1020" y="490" font-size="22" font-weight="700" fill="#059669">Runbook 命中</text>
</g>

<g>
  <path d="M 1790 560 L 1790 500 L 1345 500 L 1345 442" fill="none" stroke="#d97706" stroke-width="5" stroke-linecap="round" stroke-linejoin="round" marker-end="url(#arrow-amber)"/>
  <rect x="1634" y="459" width="130" height="42" rx="21" fill="#ffffff" stroke="#d97706" stroke-width="1.5"/><text x="1650" y="490" font-size="22" font-weight="700" fill="#d97706">工具取证</text>
</g>

<g filter="url(#softShadow)">
  <path d="M 1200 900 L 1380 1005 L 1200 1110 L 1020 1005 Z" fill="#ffffff" stroke="#cbd5e1" stroke-width="3"/>
  <text x="1108" y="988" font-size="31" font-weight="780" fill="#0f172a">证据是否充分？</text>
  <text x="1094" y="1033" font-size="31" font-weight="780" fill="#0f172a">动作是否高风险？</text>
</g>


<g>
  <path d="M 2125 440 L 2125 510 L 1200 510 L 1200 900" fill="none" stroke="#dc2626" stroke-width="5" stroke-linecap="round" stroke-linejoin="round" marker-end="url(#arrow-red)"/>
  <rect x="1214" y="479" width="106" height="42" rx="21" fill="#ffffff" stroke="#dc2626" stroke-width="1.5"/><text x="1230" y="510" font-size="22" font-weight="700" fill="#dc2626">决策门</text>
</g>

<g filter="url(#softShadow)">

<g>
  <rect x="120" y="1110" width="430" height="210" rx="26" fill="#fffafa" stroke="#d6dee8" stroke-width="2"/>
  <rect x="120" y="1110" width="10" height="210" rx="5" fill="#dc2626"/>
  <circle cx="160" cy="1156" r="14" fill="#dc2626" opacity="0.16"/>
  <text x="186" y="1168" font-size="34" font-weight="750" fill="#dc2626">继续补查 / 降级</text>
  <text x="156" y="1206" font-size="27" font-weight="500" fill="#263244">缺指标、缺日志、缺 Runbook</text>
<text x="156" y="1244" font-size="27" font-weight="500" fill="#263244">追加只读步骤或重试</text>
<text x="156" y="1282" font-size="27" font-weight="500" fill="#263244">incomplete / degraded</text>
</g>

<g>
  <rect x="650" y="1110" width="430" height="210" rx="26" fill="#fffdf5" stroke="#d6dee8" stroke-width="2"/>
  <rect x="650" y="1110" width="10" height="210" rx="5" fill="#d97706"/>
  <circle cx="690" cy="1156" r="14" fill="#d97706" opacity="0.16"/>
  <text x="716" y="1168" font-size="34" font-weight="750" fill="#d97706">人工审批</text>
  <text x="686" y="1206" font-size="27" font-weight="500" fill="#263244">中高风险动作暂停</text>
<text x="686" y="1244" font-size="27" font-weight="500" fill="#263244">生成 ApprovalRequest</text>
<text x="686" y="1282" font-size="27" font-weight="500" fill="#263244">审批后仍不自动写生产</text>
</g>

<g>
  <rect x="1180" y="1110" width="430" height="210" rx="26" fill="#f8fbff" stroke="#d6dee8" stroke-width="2"/>
  <rect x="1180" y="1110" width="10" height="210" rx="5" fill="#2563eb"/>
  <circle cx="1220" cy="1156" r="14" fill="#2563eb" opacity="0.16"/>
  <text x="1246" y="1168" font-size="34" font-weight="750" fill="#2563eb">报告与 Trace</text>
  <text x="1216" y="1206" font-size="27" font-weight="500" fill="#263244">RCA、影响范围、关键证据</text>
<text x="1216" y="1244" font-size="27" font-weight="500" fill="#263244">Evidence back-links</text>
<text x="1216" y="1282" font-size="27" font-weight="500" fill="#263244">可复盘诊断时间线</text>
</g>

<g>
  <rect x="1710" y="1110" width="430" height="210" rx="26" fill="#f7fffb" stroke="#d6dee8" stroke-width="2"/>
  <rect x="1710" y="1110" width="10" height="210" rx="5" fill="#059669"/>
  <circle cx="1750" cy="1156" r="14" fill="#059669" opacity="0.16"/>
  <text x="1776" y="1168" font-size="34" font-weight="750" fill="#059669">离线评测</text>
  <text x="1746" y="1206" font-size="27" font-weight="500" fill="#263244">AIOps golden cases</text>
<text x="1746" y="1244" font-size="27" font-weight="500" fill="#263244">RAG eval / RAGAS</text>
<text x="1746" y="1282" font-size="27" font-weight="500" fill="#263244">回归门禁防退化</text>
</g>
</g>


<g>
  <path d="M 1045 1005 L 335 1005 L 335 1110" fill="none" stroke="#dc2626" stroke-width="5" stroke-linecap="round" stroke-linejoin="round" marker-end="url(#arrow-red)"/>
  <rect x="654" y="964" width="106" height="42" rx="21" fill="#ffffff" stroke="#dc2626" stroke-width="1.5"/><text x="670" y="995" font-size="22" font-weight="700" fill="#dc2626">缺证据</text>
</g>

<g>
  <path d="M 1158 1085 L 865 1085 L 865 1110" fill="none" stroke="#d97706" stroke-width="5" stroke-linecap="round" stroke-linejoin="round" marker-end="url(#arrow-amber)"/>
  <rect x="914" y="1044" width="106" height="42" rx="21" fill="#ffffff" stroke="#d97706" stroke-width="1.5"/><text x="930" y="1075" font-size="22" font-weight="700" fill="#d97706">需审批</text>
</g>

<g>
  <path d="M 1242 1085 L 1395 1085 L 1395 1110" fill="none" stroke="#2563eb" stroke-width="5" stroke-linecap="round" stroke-linejoin="round" marker-end="url(#arrow-blue)"/>
  <rect x="1264" y="1044" width="106" height="42" rx="21" fill="#ffffff" stroke="#2563eb" stroke-width="1.5"/><text x="1280" y="1075" font-size="22" font-weight="700" fill="#2563eb">可报告</text>
</g>

<g>
  <path d="M 1355 1005 L 1925 1005 L 1925 1110" fill="none" stroke="#059669" stroke-width="5" stroke-linecap="round" stroke-linejoin="round" marker-end="url(#arrow-green)"/>
  <rect x="1644" y="964" width="130" height="42" rx="21" fill="#ffffff" stroke="#059669" stroke-width="1.5"/><text x="1660" y="995" font-size="22" font-weight="700" fill="#059669">回归验证</text>
</g>

<rect x="120" y="1375" width="2160" height="66" rx="28" fill="#ffffff" stroke="#d6dee8" stroke-width="2"/>
<text x="158" y="1418" font-size="28" font-weight="650" fill="#334155">面试表达：模型不直接改生产；所有结论必须回链 Evidence / citation；中高风险只进入审批、dry-run、sandbox 或人工记录。</text>
</svg>